# xmcd
#
# Track frame offsets:
# 150
# 13563
# 32351
# 50656
# 68641
# 83685
# 100857
# 116272
# 127776
# 142380
#
# Disc length: 2173 seconds
#
#
# Revision: 0
# Processed by: cddbd v1.4PL0 Copyright (c) Steve Scherf et al.
# Submitted via: FreeRIP 2.00 
#
DISCID=78087b0a
DTITLE=Andrea Ellis - I Bet She Knows
DYEAR=1900
DGENRE=Country
TTITLE0=OLD WEAKNESS COMIN' ON STRONG
TTITLE1=GREAT DISGUISE
TTITLE2=LIGHTER SHADE OF BLUE
TTITLE3=I BET SHE KNOWS
TTITLE4=CAN'T BREAK A BROKEN HEART
TTITLE5=STONE BY STONE
TTITLE6=WHEN YOU COME BACK TO ME
TTITLE7=THERE GOES THE NEIGHBORHOOD
TTITLE8=LEAVE ONE BRIDGE STANDING
TTITLE9=NEXT TIME
EXTD=Produced By Larry Butler and  Norbert Stoval
EXTT0=GARY NICHOLSON-BOB DIPIERO(BMI) (ASCAP
EXTT1=EVEN STEVENS-MAX D. BARNES-TROY SEALS (BMI) (ASCAP)
EXTT2=SKIP EWING-MAX D. BARNES-TROY SEALS (BMI) (ASCAP)
EXTT3=PAUL THORN-BILLY MADOX (BMI) (ASCAP)
EXTT4=CHRIS WATERS-CHUCK JONES (BMI) (ASCAP)
EXTT5=PAUL VAN STEPHENSON-DAVE ROBBINS (BMI) (ASCAP)
EXTT6=TROY SEALS-EDDIE LESTER-LARRY STEWART (BMI) (ASCAP)
EXTT7=JOHN SCOTT SHERRILL-BOB DIPIERO-PEBESEBERT (BMI) (ASCAP)
EXTT8=STEWART HARRIS-LONNIE WILSON-LAURA VIDO (BMI) (ASCAP)
EXTT9=DAN FOGELBERG (ASCAP)
PLAYORDER=
